<?xml version="1.0" encoding="UTF-8"?>
<svg width="624px" height="170px" viewBox="0 0 624 170" version="1.1" xmlns="http://www.w3.org/2000/svg" xmlns:xlink="http://www.w3.org/1999/xlink">
    <title>EventHub</title>
    <defs>
        <linearGradient x1="0%" y1="0%" x2="482.746904%" y2="100%" id="linearGradient-1">
            <stop stop-color="#00E2FF" offset="0%"></stop>
            <stop stop-color="#FFE700" offset="54.0751689%"></stop>
            <stop stop-color="#00E2FF" offset="99.963049%"></stop>
        </linearGradient>
    </defs>
    <g id="EventHub" stroke="none" stroke-width="1" fill="none" fill-rule="evenodd">
        <path d="M85,8 C127.525926,8 162,42.4740743 162,85 C162,127.525926 127.525926,162 85,162 C42.4740743,162 8,127.525926 8,85 C8,42.4740743 42.4740743,8 85,8 Z M85,12 C44.6832133,12 12,44.6832133 12,85 C12,125.316787 44.6832133,158 85,158 C125.316787,158 158,125.316787 158,85 C158,44.6832133 125.316787,12 85,12 Z M84.3125559,102.001997 L86.0799471,102 L87.83481,102.009926 C106.615549,102.179444 121,104.36014 121,107.499329 C121,107.66887 120.957957,107.835622 120.875459,107.999418 C120.958078,108.163183 121,108.329859 121,108.499329 C121,108.66887 120.957957,108.835622 120.875459,108.999418 C120.958078,109.163183 121,109.329859 121,109.499329 C121,109.66887 120.957957,109.835622 120.875459,109.999418 C120.958078,110.163183 121,110.329859 121,110.499329 C121,110.66887 120.957957,110.835622 120.875459,110.999418 C120.958078,111.163183 121,111.329859 121,111.499329 C121,111.668522 120.95813,111.834937 120.875967,111.998409 C120.957906,112.162499 121,112.329511 121,112.499329 C121,112.668522 120.95813,112.834937 120.875967,112.998409 C120.957906,113.162499 121,113.329511 121,113.499329 C121,113.668522 120.95813,113.834937 120.875967,113.998409 C120.957906,114.162499 121,114.329511 121,114.499329 C121,117.670129 106.294581,119.865393 87.2653988,119.993415 L86.6874441,119.99666 L84.9049674,119.99866 L83.7346012,119.993415 C64.7054185,119.865393 50,117.670129 50,114.499329 C50,114.329889 50.0419925,114.163235 50.1243932,113.999533 C50.0421176,113.835919 50,113.669021 50,113.499329 C50,113.329889 50.0419925,113.163235 50.1243932,112.999533 C50.0421176,112.835919 50,112.669021 50,112.499329 C50,112.329889 50.0419925,112.163235 50.1243932,111.999533 C50.0421176,111.835919 50,111.669021 50,111.499329 C50,111.329889 50.0419925,111.163235 50.1243932,110.999533 C50.0421176,110.835919 50,110.669021 50,110.499329 C50,110.329889 50.0419925,110.163235 50.1243932,109.999533 C50.0421176,109.835919 50,109.669021 50,109.499329 C50,109.329889 50.0419925,109.163235 50.1243932,108.999533 C50.0421176,108.835919 50,108.669021 50,108.499329 C50,108.329889 50.0419925,108.163235 50.1243932,107.999533 C50.0421176,107.835919 50,107.669021 50,107.499329 C50,104.391945 64.1230839,102.221466 82.5981218,102.015396 L84.3125559,102.001997 Z M51.4024026,115.129105 L51.4409419,115.159825 C52.4884532,115.949717 55.3501903,116.710982 59.464893,117.344429 C55.7499955,116.741028 52.9590068,115.991639 51.4024026,115.129105 Z M119.601178,115.127272 L119.448454,115.209428 C117.8711,116.035599 115.151434,116.755289 111.569079,117.339092 L112.382367,117.209186 C116.096341,116.595123 118.65986,115.873336 119.601178,115.127272 Z M51.4024026,114.129105 L51.4409419,114.159825 C52.4884532,114.949717 55.3501903,115.710982 59.464893,116.344429 C55.7499955,115.741028 52.9590068,114.991639 51.4024026,114.129105 Z M119.601178,114.127272 L119.448454,114.209428 C117.8711,115.035599 115.151434,115.755289 111.569079,116.339092 L112.382367,116.209186 C116.096341,115.595123 118.65986,114.873336 119.601178,114.127272 Z M52.0803272,113.463659 L52.0060148,113.499663 C53.3403904,114.166744 55.9439081,114.802383 59.464893,115.344429 C56.2388517,114.820457 53.7095465,114.186341 52.0803272,113.463659 Z M118.918647,113.46367 L118.749046,113.53763 C117.122262,114.227144 114.66857,114.833979 111.569079,115.339092 L112.392071,115.207584 C115.47838,114.696876 117.769128,114.111717 118.99308,113.500116 L118.918647,113.46367 L118.918647,113.46367 Z M53.3808745,112.960019 L53.2585477,112.999506 C54.7181675,113.482747 56.8357546,113.93968 59.464893,114.344429 C56.9998631,113.944105 54.9416058,113.479389 53.3808745,112.960019 Z M117.617308,112.960494 L117.47544,113.007224 C115.940229,113.505202 113.944274,113.952015 111.569079,114.339092 L112.524782,114.185503 C114.697948,113.821704 116.468836,113.420744 117.740509,112.999818 L117.617308,112.960494 L117.617308,112.960494 Z M55.1501056,112.472563 L55.0407862,112.499553 C56.2744964,112.798375 57.7624495,113.082342 59.464893,113.344429 C57.8416067,113.08087 56.3946909,112.789274 55.1501056,112.472563 Z M115.955603,112.500428 L115.845549,112.473571 L115.845549,112.473571 L115.665639,112.5189 C114.472046,112.815562 113.099263,113.089724 111.569079,113.339092 C113.255548,113.078844 114.730757,112.796955 115.955603,112.500428 Z M86.0782103,109.999998 L84.3762795,110.002005 C77.0093234,110.037121 70.1597908,110.415448 64.6069916,110.999264 C69.9283747,111.558865 76.4409534,111.92965 83.4586626,111.990485 L84.3768242,111.996652 L85.5,111.999329 C93.2916583,111.999329 100.555839,111.612933 106.389327,110.999768 C101.215512,110.454604 94.9152516,110.088466 88.1167206,110.013579 L87.1866187,110.005183 L86.0782103,109.999998 Z M59.4580235,108.655154 L59.4231597,108.660656 C57.7381196,108.920956 56.2643935,109.202723 55.0407697,109.499105 L55.1518591,109.526253 L55.1518591,109.526253 C56.3940109,109.209615 57.8381014,108.918518 59.4580235,108.655154 Z M59.4580235,107.655154 L59.4231597,107.660656 C56.8133431,108.063812 54.710433,108.518467 53.2585411,108.999152 L53.3799519,109.03915 L53.3799519,109.03915 C54.9388569,108.520046 56.995236,108.055549 59.4580235,107.655154 Z M111.785838,107.694399 L112.004886,107.731019 C114.264803,108.113668 116.162108,108.552108 117.622842,109.038544 L117.740509,108.999818 L117.740509,108.999818 C116.327268,108.533042 114.298422,108.089742 111.785838,107.694399 Z M59.4580235,106.655154 L59.4231597,106.660656 C55.9233428,107.201296 53.3351139,107.834548 52.0060129,108.498994 L52.0788541,108.535438 L52.0788541,108.535438 C53.7074172,107.813075 56.2346162,107.179209 59.4580235,106.655154 Z M111.785838,106.694399 L112.004886,106.731019 C115.009604,107.239778 117.373313,107.847161 118.922181,108.534849 L118.99308,108.500116 L118.99308,108.500116 C117.690927,107.849902 115.179667,107.228402 111.785838,106.694399 Z M59.4580235,105.655154 L58.6108513,105.790507 C54.9013459,106.404286 52.3407787,107.125441 51.3994975,107.870849 C52.9561878,107.008052 55.7452932,106.258762 59.4580235,105.655154 Z M111.785838,105.694399 L112.004886,105.731019 C115.481603,106.319697 118.100107,107.040418 119.591103,107.864801 C118.591619,107.083322 115.808777,106.327389 111.785838,105.694399 Z M59.4580235,104.655154 L58.6108513,104.790507 C54.9013459,105.404286 52.3407787,106.125441 51.3994975,106.870849 C52.9561878,106.008052 55.7452932,105.258762 59.4580235,104.655154 Z M111.785838,104.694399 L112.004886,104.731019 C115.481603,105.319697 118.100107,106.040418 119.591103,106.864801 C118.591619,106.083322 115.808777,105.327389 111.785838,104.694399 Z M84.3125559,76.0019974 L86.0799471,76 L87.83481,76.009926 C106.615549,76.1794436 121,78.3601397 121,81.4993288 C121,81.6688698 120.957957,81.8356218 120.875459,81.9994178 C120.958078,82.1631831 121,82.3298592 121,82.4993288 C121,82.6688698 120.957957,82.8356218 120.875459,82.9994178 C120.958078,83.1631831 121,83.3298592 121,83.4993288 C121,83.6688698 120.957957,83.8356218 120.875459,83.9994178 C120.958078,84.1631831 121,84.3298592 121,84.4993288 C121,84.6688698 120.957957,84.8356218 120.875459,84.9994178 C120.958078,85.1631831 121,85.3298592 121,85.4993288 C121,85.6685217 120.95813,85.834937 120.875967,85.9984088 C120.957906,86.1624986 121,86.3295112 121,86.4993288 C121,86.6685217 120.95813,86.834937 120.875967,86.9984088 C120.957906,87.1624986 121,87.3295112 121,87.4993288 C121,87.6685217 120.95813,87.834937 120.875967,87.9984088 C120.957906,88.1624986 121,88.3295112 121,88.4993288 C121,91.6701288 106.294581,93.8653927 87.2653988,93.9934146 L86.6874441,93.9966602 L84.9049674,93.9986605 L83.7346012,93.9934146 C64.7054185,93.8653927 50,91.6701288 50,88.4993288 C50,88.3298889 50.0419925,88.1632346 50.1243932,87.9995327 C50.0421176,87.8359191 50,87.669021 50,87.4993288 C50,87.3298889 50.0419925,87.1632346 50.1243932,86.9995327 C50.0421176,86.8359191 50,86.669021 50,86.4993288 C50,86.3298889 50.0419925,86.1632346 50.1243932,85.9995327 C50.0421176,85.8359191 50,85.669021 50,85.4993288 C50,85.3298889 50.0419925,85.1632346 50.1243932,84.9995327 C50.0421176,84.8359191 50,84.669021 50,84.4993288 C50,84.3298889 50.0419925,84.1632346 50.1243932,83.9995327 C50.0421176,83.8359191 50,83.669021 50,83.4993288 C50,83.3298889 50.0419925,83.1632346 50.1243932,82.9995327 C50.0421176,82.8359191 50,82.669021 50,82.4993288 C50,82.3298889 50.0419925,82.1632346 50.1243932,81.9995327 C50.0421176,81.8359191 50,81.669021 50,81.4993288 C50,78.3919448 64.1230839,76.2214657 82.5981218,76.0153962 L84.3125559,76.0019974 Z M51.4024026,89.1291051 L51.4409419,89.1598247 C52.4884532,89.9497168 55.3501903,90.710982 59.464893,91.3444286 C55.7499955,90.7410283 52.9590068,89.9916393 51.4024026,89.1291051 Z M119.601178,89.1272725 L119.448454,89.209428 C117.8711,90.0355994 115.151434,90.7552888 111.569079,91.3390919 L112.382367,91.2091862 C116.096341,90.5951231 118.65986,89.8733358 119.601178,89.1272725 Z M51.4024026,88.1291051 L51.4409419,88.1598247 C52.4884532,88.9497168 55.3501903,89.710982 59.464893,90.3444286 C55.7499955,89.7410283 52.9590068,88.9916393 51.4024026,88.1291051 Z M119.601178,88.1272725 L119.448454,88.209428 C117.8711,89.0355994 115.151434,89.7552888 111.569079,90.3390919 L112.382367,90.2091862 C116.096341,89.5951231 118.65986,88.8733358 119.601178,88.1272725 Z M52.0803272,87.4636591 L52.0060148,87.4996635 C53.3403904,88.1667442 55.9439081,88.8023831 59.464893,89.3444286 C56.2388517,88.820457 53.7095465,88.186341 52.0803272,87.4636591 Z M118.918647,87.4636699 L118.749046,87.5376299 C117.122262,88.2271437 114.66857,88.8339793 111.569079,89.3390919 L112.392071,89.2075842 C115.47838,88.6968765 117.769128,88.1117174 118.99308,87.500116 L118.918647,87.4636699 L118.918647,87.4636699 Z M53.3808745,86.9600185 L53.2585477,86.9995056 C54.7181675,87.4827473 56.8357546,87.9396804 59.464893,88.3444286 C56.9998631,87.9441051 54.9416058,87.4793891 53.3808745,86.9600185 Z M117.617308,86.9604944 L117.47544,87.0072236 C115.940229,87.5052022 113.944274,87.9520151 111.569079,88.3390919 L112.524782,88.1855032 C114.697948,87.8217039 116.468836,87.4207439 117.740509,86.9998178 L117.617308,86.9604944 L117.617308,86.9604944 Z M55.1501056,86.4725627 L55.0407862,86.4995531 C56.2744964,86.7983753 57.7624495,87.0823424 59.464893,87.3444286 C57.8416067,87.0808705 56.3946909,86.7892737 55.1501056,86.4725627 Z M115.955603,86.5004275 L115.845549,86.4735712 L115.845549,86.4735712 L115.665639,86.5189001 C114.472046,86.8155624 113.099263,87.0897235 111.569079,87.3390919 C113.255548,87.0788444 114.730757,86.7969547 115.955603,86.5004275 Z M86.0782103,83.9999983 L84.3762795,84.002005 C77.0093234,84.0371211 70.1597908,84.415448 64.6069916,84.9992644 C69.9283747,85.5588655 76.4409534,85.9296505 83.4586626,85.990485 L84.3768242,85.9966523 L85.5,85.9993288 C93.2916583,85.9993288 100.555839,85.6129334 106.389327,84.9997679 C101.215512,84.4546044 94.9152516,84.0884656 88.1167206,84.0135793 L87.1866187,84.0051833 L86.0782103,83.9999983 Z M59.4580235,82.6551543 L59.4231597,82.6606565 C57.7381196,82.9209558 56.2643935,83.2027234 55.0407697,83.4991045 L55.1518591,83.5262526 L55.1518591,83.5262526 C56.3940109,83.2096147 57.8381014,82.9185175 59.4580235,82.6551543 Z M59.4580235,81.6551543 L59.4231597,81.6606565 C56.8133431,82.0638122 54.710433,82.5184666 53.2585411,82.999152 L53.3799519,83.0391504 L53.3799519,83.0391504 C54.9388569,82.5200458 56.995236,82.0555487 59.4580235,81.6551543 Z M111.785838,81.6943986 L112.004886,81.7310193 C114.264803,82.113668 116.162108,82.5521078 117.622842,83.0385438 L117.740509,82.9998178 L117.740509,82.9998178 C116.327268,82.5330424 114.298422,82.0897418 111.785838,81.6943986 Z M59.4580235,80.6551543 L59.4231597,80.6606565 C55.9233428,81.2012964 53.3351139,81.8345483 52.0060129,82.4989941 L52.0788541,82.5354384 L52.0788541,82.5354384 C53.7074172,81.8130755 56.2346162,81.1792085 59.4580235,80.6551543 Z M111.785838,80.6943986 L112.004886,80.7310193 C115.009604,81.2397777 117.373313,81.847161 118.922181,82.5348485 L118.99308,82.500116 L118.99308,82.500116 C117.690927,81.8499019 115.179667,81.2284016 111.785838,80.6943986 Z M59.4580235,79.6551543 L58.6108513,79.7905069 C54.9013459,80.4042863 52.3407787,81.1254407 51.3994975,81.8708492 C52.9561878,81.0080519 55.7452932,80.2587616 59.4580235,79.6551543 Z M111.785838,79.6943986 L112.004886,79.7310193 C115.481603,80.3196965 118.100107,81.0404176 119.591103,81.8648008 C118.591619,81.0833218 115.808777,80.327389 111.785838,79.6943986 Z M59.4580235,78.6551543 L58.6108513,78.7905069 C54.9013459,79.4042863 52.3407787,80.1254407 51.3994975,80.8708492 C52.9561878,80.0080519 55.7452932,79.2587616 59.4580235,78.6551543 Z M111.785838,78.6943986 L112.004886,78.7310193 C115.481603,79.3196965 118.100107,80.0404176 119.591103,80.8648008 C118.591619,80.0833218 115.808777,79.327389 111.785838,78.6943986 Z M84.3125559,50.0019974 L86.0799471,50 L87.83481,50.009926 C106.615549,50.1794436 121,52.3601397 121,55.4993288 C121,55.6688698 120.957957,55.8356218 120.875459,55.9994178 C120.958078,56.1631831 121,56.3298592 121,56.4993288 C121,56.6688698 120.957957,56.8356218 120.875459,56.9994178 C120.958078,57.1631831 121,57.3298592 121,57.4993288 C121,57.6688698 120.957957,57.8356218 120.875459,57.9994178 C120.958078,58.1631831 121,58.3298592 121,58.4993288 C121,58.6688698 120.957957,58.8356218 120.875459,58.9994178 C120.958078,59.1631831 121,59.3298592 121,59.4993288 C121,59.6685217 120.95813,59.834937 120.875967,59.9984088 C120.957906,60.1624986 121,60.3295112 121,60.4993288 C121,60.6685217 120.95813,60.834937 120.875967,60.9984088 C120.957906,61.1624986 121,61.3295112 121,61.4993288 C121,61.6685217 120.95813,61.834937 120.875967,61.9984088 C120.957906,62.1624986 121,62.3295112 121,62.4993288 C121,65.6701288 106.294581,67.8653927 87.2653988,67.9934146 L86.6874441,67.9966602 L84.9049674,67.9986605 L83.7346012,67.9934146 C64.7054185,67.8653927 50,65.6701288 50,62.4993288 C50,62.3298889 50.0419925,62.1632346 50.1243932,61.9995327 C50.0421176,61.8359191 50,61.669021 50,61.4993288 C50,61.3298889 50.0419925,61.1632346 50.1243932,60.9995327 C50.0421176,60.8359191 50,60.669021 50,60.4993288 C50,60.3298889 50.0419925,60.1632346 50.1243932,59.9995327 C50.0421176,59.8359191 50,59.669021 50,59.4993288 C50,59.3298889 50.0419925,59.1632346 50.1243932,58.9995327 C50.0421176,58.8359191 50,58.669021 50,58.4993288 C50,58.3298889 50.0419925,58.1632346 50.1243932,57.9995327 C50.0421176,57.8359191 50,57.669021 50,57.4993288 C50,57.3298889 50.0419925,57.1632346 50.1243932,56.9995327 C50.0421176,56.8359191 50,56.669021 50,56.4993288 C50,56.3298889 50.0419925,56.1632346 50.1243932,55.9995327 C50.0421176,55.8359191 50,55.669021 50,55.4993288 C50,52.3919448 64.1230839,50.2214657 82.5981218,50.0153962 L84.3125559,50.0019974 Z M51.4024026,63.1291051 L51.4409419,63.1598247 C52.4884532,63.9497168 55.3501903,64.710982 59.464893,65.3444286 C55.7499955,64.7410283 52.9590068,63.9916393 51.4024026,63.1291051 Z M119.601178,63.1272725 L119.448454,63.209428 C117.8711,64.0355994 115.151434,64.7552888 111.569079,65.3390919 L112.382367,65.2091862 C116.096341,64.5951231 118.65986,63.8733358 119.601178,63.1272725 Z M51.4024026,62.1291051 L51.4409419,62.1598247 C52.4884532,62.9497168 55.3501903,63.710982 59.464893,64.3444286 C55.7499955,63.7410283 52.9590068,62.9916393 51.4024026,62.1291051 Z M119.601178,62.1272725 L119.448454,62.209428 C117.8711,63.0355994 115.151434,63.7552888 111.569079,64.3390919 L112.382367,64.2091862 C116.096341,63.5951231 118.65986,62.8733358 119.601178,62.1272725 Z M52.0803272,61.4636591 L52.0060148,61.4996635 C53.3403904,62.1667442 55.9439081,62.8023831 59.464893,63.3444286 C56.2388517,62.820457 53.7095465,62.186341 52.0803272,61.4636591 Z M118.918647,61.4636699 L118.749046,61.5376299 C117.122262,62.2271437 114.66857,62.8339793 111.569079,63.3390919 L112.392071,63.2075842 C115.47838,62.6968765 117.769128,62.1117174 118.99308,61.500116 L118.918647,61.4636699 L118.918647,61.4636699 Z M53.3808745,60.9600185 L53.2585477,60.9995056 C54.7181675,61.4827473 56.8357546,61.9396804 59.464893,62.3444286 C56.9998631,61.9441051 54.9416058,61.4793891 53.3808745,60.9600185 Z M117.617308,60.9604944 L117.47544,61.0072236 C115.940229,61.5052022 113.944274,61.9520151 111.569079,62.3390919 L112.524782,62.1855032 C114.697948,61.8217039 116.468836,61.4207439 117.740509,60.9998178 L117.617308,60.9604944 L117.617308,60.9604944 Z M55.1501056,60.4725627 L55.0407862,60.4995531 C56.2744964,60.7983753 57.7624495,61.0823424 59.464893,61.3444286 C57.8416067,61.0808705 56.3946909,60.7892737 55.1501056,60.4725627 Z M115.955603,60.5004275 L115.845549,60.4735712 L115.845549,60.4735712 L115.665639,60.5189001 C114.472046,60.8155624 113.099263,61.0897235 111.569079,61.3390919 C113.255548,61.0788444 114.730757,60.7969547 115.955603,60.5004275 Z M86.0782103,57.9999983 L84.3762795,58.002005 C77.0093234,58.0371211 70.1597908,58.415448 64.6069916,58.9992644 C69.9283747,59.5588655 76.4409534,59.9296505 83.4586626,59.990485 L84.3768242,59.9966523 L85.5,59.9993288 C93.2916583,59.9993288 100.555839,59.6129334 106.389327,58.9997679 C101.215512,58.4546044 94.9152516,58.0884656 88.1167206,58.0135793 L87.1866187,58.0051833 L86.0782103,57.9999983 Z M59.4580235,56.6551543 L59.4231597,56.6606565 C57.7381196,56.9209558 56.2643935,57.2027234 55.0407697,57.4991045 L55.1518591,57.5262526 L55.1518591,57.5262526 C56.3940109,57.2096147 57.8381014,56.9185175 59.4580235,56.6551543 Z M59.4580235,55.6551543 L59.4231597,55.6606565 C56.8133431,56.0638122 54.710433,56.5184666 53.2585411,56.999152 L53.3799519,57.0391504 L53.3799519,57.0391504 C54.9388569,56.5200458 56.995236,56.0555487 59.4580235,55.6551543 Z M111.785838,55.6943986 L112.004886,55.7310193 C114.264803,56.113668 116.162108,56.5521078 117.622842,57.0385438 L117.740509,56.9998178 L117.740509,56.9998178 C116.327268,56.5330424 114.298422,56.0897418 111.785838,55.6943986 Z M59.4580235,54.6551543 L59.4231597,54.6606565 C55.9233428,55.2012964 53.3351139,55.8345483 52.0060129,56.4989941 L52.0788541,56.5354384 L52.0788541,56.5354384 C53.7074172,55.8130755 56.2346162,55.1792085 59.4580235,54.6551543 Z M111.785838,54.6943986 L112.004886,54.7310193 C115.009604,55.2397777 117.373313,55.847161 118.922181,56.5348485 L118.99308,56.500116 L118.99308,56.500116 C117.690927,55.8499019 115.179667,55.2284016 111.785838,54.6943986 Z M59.4580235,53.6551543 L58.6108513,53.7905069 C54.9013459,54.4042863 52.3407787,55.1254407 51.3994975,55.8708492 C52.9561878,55.0080519 55.7452932,54.2587616 59.4580235,53.6551543 Z M111.785838,53.6943986 L112.004886,53.7310193 C115.481603,54.3196965 118.100107,55.0404176 119.591103,55.8648008 C118.591619,55.0833218 115.808777,54.327389 111.785838,53.6943986 Z M59.4580235,52.6551543 L58.6108513,52.7905069 C54.9013459,53.4042863 52.3407787,54.1254407 51.3994975,54.8708492 C52.9561878,54.0080519 55.7452932,53.2587616 59.4580235,52.6551543 Z M111.785838,52.6943986 L112.004886,52.7310193 C115.481603,53.3196965 118.100107,54.0404176 119.591103,54.8648008 C118.591619,54.0833218 115.808777,53.327389 111.785838,52.6943986 Z" id="Shape" fill="url(#linearGradient-1)" fill-rule="nonzero"></path>
        <path d="M192.304087,121.890417 C198.37469,124.563316 203.944968,125.799533 209.014922,125.599065 C220.155478,125.19813 227.960538,121.322425 232.430103,113.971951 C234.4314,110.630826 235.365339,106.688299 235.231919,102.14437 C235.03179,95.7962326 233.614204,90.8179568 230.979162,87.2095421 C228.34412,83.6011275 224.024653,80.8948164 218.020761,79.0906091 C214.485135,78.0214492 212.116933,77.2864018 210.916154,76.8854668 C204.245163,74.880792 200.909667,71.6064898 200.909667,67.0625602 C200.909667,63.7214354 202.34393,61.1821807 205.212456,59.4447958 C207.080334,58.3088134 209.114987,57.7408222 211.316414,57.7408222 C217.320306,57.7408222 222.156776,59.3445621 225.825821,62.5520418 L225.825821,62.5520418 L225.825821,48.2186168 C220.822577,45.946652 215.485784,44.8774921 209.815441,45.0111371 C205.612716,45.1447821 201.693508,46.1972364 198.057818,48.1684999 C194.422127,50.1397635 191.503568,52.8794858 189.302141,56.3876667 C187.100714,59.8958477 186,63.654613 186,67.6639626 L186,67.6639626 L186,68.265365 C186,77.0191118 190.10266,83.7013612 198.30798,88.3121133 C200.642827,89.1808057 202.810899,89.9158532 204.812197,90.5172556 C209.882151,91.9873505 213.351066,93.2569779 215.218944,94.3261378 C218.68786,96.3308126 220.422318,98.9034786 220.422318,102.044136 L220.422318,102.044136 L220.422318,102.244603 C220.422318,109.060498 215.652559,112.468445 206.11304,112.468445 C202.510705,112.468445 199.275274,111.499519 196.406747,109.561666 C194.805709,108.492507 193.504866,107.556992 192.504217,106.755122 L192.504217,106.755122 L192.304087,121.890417 Z M268.956815,124.39626 L268.956815,110.864705 C265.287769,110.864705 262.152403,109.578372 259.550717,107.005706 C256.94903,104.43304 255.648186,101.309088 255.648186,97.6338512 L255.648186,97.6338512 L255.648186,83.9018287 L268.956815,83.9018287 L268.956815,72.3749484 L255.648186,72.3749484 L255.648186,45.0111371 L242.139428,45.0111371 L242.139428,97.6338512 C242.139428,105.117971 244.741115,111.449402 249.944488,116.628145 C255.147862,121.806888 261.485304,124.39626 268.956815,124.39626 L268.956815,124.39626 Z M302.581646,126 C310.853675,126 317.658087,122.859343 322.99488,116.578028 L322.99488,116.578028 L325.896762,124.39626 L340.206039,124.39626 L327.797995,90.1163206 C325.863407,84.7705211 322.611298,80.4771759 318.041669,77.2362849 C313.47204,73.9953939 308.352053,72.3749484 302.68171,72.3749484 C299.679764,72.3749484 296.611108,72.9429396 293.475742,74.078922 C288.138948,76.0167744 283.869514,79.274371 280.667438,83.8517118 C277.465361,88.4290527 275.864323,93.5576791 275.864323,99.2375911 C275.864323,106.654888 278.449333,112.969614 283.619351,118.181768 C288.78937,123.393923 295.110135,126 302.581646,126 Z M302.581646,112.468445 C299.913249,112.468445 297.411627,111.666575 295.07678,110.062835 C291.274314,107.456758 289.373082,103.848343 289.373082,99.2375911 C289.373082,96.4978688 290.173601,93.9586141 291.774639,91.6198268 C294.309616,87.8777671 297.911951,86.0067372 302.581646,86.0067372 C305.450172,86.0067372 307.985149,86.7751959 310.186576,88.3121133 C313.989042,90.9181906 315.890274,94.5600165 315.890274,99.2375911 C315.890274,102.912828 314.589431,106.03678 311.987744,108.609446 C309.386057,111.182112 306.250691,112.468445 302.581646,112.468445 Z M374.031,124.39626 L374.031,110.864705 C370.361954,110.864705 367.226588,109.578372 364.624901,107.005706 C362.023214,104.43304 360.722371,101.309088 360.722371,97.6338512 L360.722371,97.6338512 L360.722371,83.9018287 L374.031,83.9018287 L374.031,72.3749484 L360.722371,72.3749484 L360.722371,45.0111371 L347.213613,45.0111371 L347.213613,97.6338512 C347.213613,105.117971 349.815299,111.449402 355.018673,116.628145 C360.222047,121.806888 366.559489,124.39626 374.031,124.39626 L374.031,124.39626 Z M407.65583,125.899766 C414.727082,125.899766 420.831039,123.460745 425.967703,118.582703 L425.967703,118.582703 L417.762383,107.657225 C415.093986,110.797883 411.725135,112.368211 407.65583,112.368211 C404.720594,112.368211 402.085552,111.516224 399.750705,109.812251 C397.415858,108.108277 395.81482,105.853018 394.947591,103.046473 L394.947591,103.046473 L434.072958,103.046473 C434.273088,101.710023 434.373152,100.373573 434.373152,99.0371236 C434.373152,91.5530043 431.788143,85.2215729 426.618124,80.0428296 C421.448106,74.8640863 415.127341,72.2747147 407.65583,72.2747147 C400.184319,72.2747147 393.846877,74.8640863 388.643504,80.0428296 C383.44013,85.2215729 380.838443,91.5530043 380.838443,99.0371236 C380.838443,106.588065 383.423453,112.952908 388.593471,118.131651 C393.76349,123.310395 400.11761,125.899766 407.65583,125.899766 Z M419.263356,92.9228654 L395.94824,92.9228654 C398.416507,88.1784683 402.319037,85.8062698 407.65583,85.8062698 C412.925914,85.8062698 416.795089,88.1784683 419.263356,92.9228654 L419.263356,92.9228654 Z M454.889484,124.39626 L454.889484,99.0371236 C454.889484,95.3618864 456.190328,92.2379348 458.792014,89.6652688 C461.393701,87.0926028 464.529067,85.8062698 468.198113,85.8062698 C471.800448,85.8062698 474.90246,87.1093084 477.504146,89.7153857 C480.105833,92.3214629 481.406677,95.4287089 481.406677,99.0371236 L481.406677,99.0371236 L481.506741,124.39626 L495.0155,124.39626 L495.0155,99.0371236 C495.0155,91.5530043 492.413813,85.2215729 487.210439,80.0428296 C482.007066,74.8640863 475.669624,72.2747147 468.198113,72.2747147 C463.461709,72.2747147 459.025499,73.4441083 454.889484,75.7828956 L454.889484,75.7828956 L454.889484,45.0111371 L441.380726,45.0111371 L441.380726,124.39626 L454.889484,124.39626 Z M528.740395,126 C536.278616,126 542.632736,123.410628 547.802754,118.231885 C552.972773,113.053142 555.557782,106.688299 555.557782,99.1373573 L555.557782,99.1373573 L555.557782,72.3749484 L542.049024,72.3749484 L542.049024,99.1373573 C542.049024,102.812595 540.748181,105.953252 538.146494,108.559329 C535.544807,111.165406 532.409441,112.468445 528.740395,112.468445 C525.07135,112.468445 521.952661,111.165406 519.384329,108.559329 C516.815998,105.953252 515.531832,102.812595 515.531832,99.1373573 L515.531832,99.1373573 L515.431767,72.3749484 L501.923008,72.3749484 L501.923008,99.1373573 C501.923008,106.621477 504.524695,112.969614 509.728069,118.181768 C514.931442,123.393923 521.268885,126 528.740395,126 Z M589.282678,125.899766 C596.754189,125.899766 603.074953,123.293689 608.244972,118.081534 C613.414991,112.86938 616,106.521243 616,99.0371236 C616,91.5530043 613.414991,85.2215729 608.244972,80.0428296 C603.074953,74.8640863 596.754189,72.2747147 589.282678,72.2747147 C584.479564,72.2747147 580.043354,73.4441083 575.974049,75.7828956 L575.974049,75.7828956 L575.974049,45.0111371 L562.465291,45.0111371 L562.465291,99.0371236 C562.465291,106.588065 565.0503,112.952908 570.220319,118.131651 C575.390337,123.310395 581.744457,125.899766 589.282678,125.899766 Z M589.282678,112.368211 C585.613632,112.368211 582.478266,111.065173 579.876579,108.459095 C577.274893,105.853018 575.974049,102.712361 575.974049,99.0371236 C575.974049,95.3618864 577.274893,92.2379348 579.876579,89.6652688 C582.478266,87.0926028 585.613632,85.8062698 589.282678,85.8062698 C592.885013,85.8062698 595.987025,87.1093084 598.588711,89.7153857 C601.190398,92.3214629 602.491242,95.4287089 602.491242,99.0371236 C602.491242,102.712361 601.207076,105.853018 598.638744,108.459095 C596.070412,111.065173 592.951723,112.368211 589.282678,112.368211 Z" id="Statehub" fill="#56E3B4" fill-rule="nonzero"></path>
        <path d="M50,107 C53.2832626,103.666667 65.3093213,102 86.0781759,102 C117.231458,102 121,106 121,107 C121,108 113.535184,110.385574 106.177067,111 C95.1226771,110 93.6253722,110 85.0732313,110 C81.053453,110 85.0732313,110 64.9743397,111 C60.2845984,111 55.2931518,109.666667 50,107 Z" id="Rectangle" fill-opacity="0.1" fill="#000000"></path>
        <path d="M50,81 C53.2832626,77.6666667 65.3093213,76 86.0781759,76 C117.231458,76 121,80 121,81 C121,82 113.535184,84.3855738 106.177067,85 C95.1226771,84 93.6253722,84 85.0732313,84 C81.053453,84 85.0732313,84 64.9743397,85 C60.2845984,85 55.2931518,83.6666667 50,81 Z" id="Rectangle" fill-opacity="0.1" fill="#000000"></path>
        <path d="M50,55 C53.2832626,51.6666667 65.3093213,50 86.0781759,50 C117.231458,50 121,54 121,55 C121,56 113.535184,58.3855738 106.177067,59 C95.1226771,58 93.6253722,58 85.0732313,58 C81.053453,58 85.0732313,58 64.9743397,59 C60.2845984,59 55.2931518,57.6666667 50,55 Z" id="Rectangle" fill-opacity="0.1" fill="#000000"></path>
    </g>
</svg>